<?xml version="1.0" encoding="utf-8"?>
<!-- Generator: Adobe Illustrator 19.1.0, SVG Export Plug-In . SVG Version: 6.00 Build 0)  -->
<svg version="1.1" id="Layer_1" xmlns="http://www.w3.org/2000/svg" xmlns:xlink="http://www.w3.org/1999/xlink" x="0px" y="0px"
	 viewBox="0 0 85.3 37.8" enable-background="new 0 0 85.3 37.8" xml:space="preserve">
<g>
	<path fill="#ffffff" d="M35.9,10.7h-0.4c-0.2,0-0.3,0.1-0.3,0.3v6.9c0,0.2,0.1,0.3,0.3,0.3h0.4c0.2,0,0.3-0.1,0.3-0.3V11
		C36.2,10.8,36.1,10.7,35.9,10.7z"/>
	<path fill="#ffffff" d="M35.3,20.3h-0.4c-0.2,0-0.3,0.1-0.3,0.3V25c0,1.2-0.8,2-1.9,2c-1.1,0-1.9-0.8-1.9-2v-4.4c0-0.2-0.1-0.3-0.3-0.3h-0.4
		c-0.2,0-0.3,0.1-0.3,0.3V25c0,1.7,1.2,2.9,2.9,2.9c1.7,0,2.9-1.2,2.9-2.9v-4.4C35.6,20.4,35.4,20.3,35.3,20.3z"/>
	<path fill="#ffffff" d="M50.4,20.3H50c-0.2,0-0.3,0.1-0.3,0.3v5.3l-4.6-5.7c0,0,0,0-0.1,0h-0.3c-0.2,0-0.3,0.1-0.3,0.3v7c0,0.2,0.1,0.3,0.3,0.3
		h0.4c0.2,0,0.3-0.1,0.3-0.3v-5.4l4.6,5.8c0,0,0,0,0.1,0h0.2c0.2,0,0.3-0.1,0.3-0.3v-7C50.7,20.4,50.5,20.3,50.4,20.3z"/>
	<path fill="#ffffff" d="M33.6,16.3c0-1.3-1.1-1.9-2.4-2.4c-1-0.4-1.3-0.8-1.3-1.4c0-0.4,0.3-1.1,1.3-1.1c0.3,0,0.7,0.1,1.3,0.4l0,0
		c0.1,0,0.1,0.1,0.2,0.1c0.2,0,0.3-0.1,0.3-0.2c0,0,0.1-0.2,0.1-0.2c0.1-0.1,0.1-0.2,0.1-0.3c0-0.1-0.1-0.2-0.1-0.2
		c0,0-0.8-0.5-1.8-0.5c-1.7,0-2.3,1.2-2.3,2c0,1.2,0.6,1.7,1.9,2.3c1.1,0.5,1.8,0.9,1.8,1.6c0,0.6-0.6,1.1-1.3,1.1
		c-0.7,0-1.3-0.4-1.7-0.8c-0.1-0.1-0.1-0.1-0.2-0.1c-0.1,0-0.2,0.1-0.3,0.2c0,0-0.2,0.2-0.2,0.2c-0.2,0.3,0,0.4,0.1,0.5
		c0.2,0.1,1,0.9,2.3,0.9C32.6,18.3,33.6,17.4,33.6,16.3z"/>
	<path fill="#ffffff" d="M40.9,10.7h-2.3c-0.2,0-0.3,0.1-0.3,0.3v6.9c0,0.2,0.1,0.3,0.3,0.3h2.3c2.1,0,3.8-1.7,3.8-3.8
		C44.6,12.3,42.9,10.7,40.9,10.7z M40.7,17.2h-1.5v-5.7h1.5c1.7,0,2.9,1.2,2.9,2.8C43.6,16.1,42.4,17.2,40.7,17.2z"/>
	<path fill="#ffffff" d="M42.9,22.6c0-1.3-1.1-2.3-2.4-2.3h-2.7c-0.2,0-0.3,0.1-0.3,0.3v6.9c0,0.2,0.1,0.3,0.3,0.3h0.4c0.2,0,0.3-0.1,0.3-0.3v-2.6
		h1.8l1.4,2.7c0,0,0.1,0.1,0.3,0.1h0.5c0.1,0,0.2-0.1,0.3-0.1c0.1-0.1,0.1-0.2,0-0.3l-1.4-2.6C42.3,24.4,42.9,23.6,42.9,22.6z
		 M40.5,24.1h-1.9v-2.8h1.9c0.7,0,1.4,0.6,1.4,1.4C41.9,23.4,41.3,24.1,40.5,24.1z"/>
	<path fill="#ffffff" d="M24.6,20.2c-2.1,0-3.8,1.7-3.8,3.9c0,2.2,1.7,3.8,3.8,3.8c2.2,0,3.9-1.7,3.9-3.8C28.4,21.9,26.7,20.2,24.6,20.2z M24.6,27
		c-1.6,0-2.9-1.3-2.9-2.9c0-1.6,1.3-2.9,2.9-2.9c1.6,0,2.9,1.3,2.9,2.9C27.5,25.7,26.2,27,24.6,27z"/>
	<path fill="#ffffff" d="M22.3,16.3h0.5c0.1,0,0.2-0.1,0.2-0.2v-3.7l3.4,4c0,0,0,0,0,0h0.2c0.1,0,0.2-0.1,0.2-0.2v-5.3c0-0.1-0.1-0.2-0.2-0.2h-0.5
		c-0.1,0-0.2,0.1-0.2,0.2v3.6l-3.4-3.9c0,0,0,0,0,0h-0.2c-0.1,0-0.2,0.1-0.2,0.2v5.3C22.1,16.2,22.2,16.3,22.3,16.3z"/>
	<path fill="#ffffff" d="M22.2,18h4.6c0.1,0,0.2-0.1,0.2-0.2v-0.3c0-0.1-0.1-0.2-0.2-0.2h-4.6c-0.1,0-0.2,0.1-0.2,0.2v0.3C21.9,17.9,22,18,22.2,18z
		"/>
	<path fill="#ffffff" d="M19.1,20.3h-0.4c-0.2,0-0.3,0.1-0.3,0.3v4.9c0,1.1-0.6,1.5-1.2,1.5c-0.4,0-0.8-0.3-0.9-0.5c-0.1-0.1-0.1-0.2-0.3-0.2
		c-0.1,0-0.2,0-0.2,0.1l-0.2,0.3c-0.1,0.1-0.1,0.3,0,0.4c0.4,0.5,1,0.8,1.7,0.8c1.3,0,2.2-0.9,2.2-2.4v-4.9
		C19.4,20.4,19.2,20.3,19.1,20.3z"/>
	<path fill="#ffffff" d="M19.1,10.7h-0.4c-0.2,0-0.3,0.1-0.3,0.3v6.9c0,0.2,0.1,0.3,0.3,0.3h0.4c0.2,0,0.3-0.1,0.3-0.3V11
		C19.4,10.8,19.2,10.7,19.1,10.7z"/>
	<path fill="#ffffff" d="M69,24.5c0-1-0.9-1.5-1.7-1.8c-0.7-0.3-1-0.6-1-1c0-0.2,0.2-0.7,0.9-0.7c0.2,0,0.5,0.1,1.1,0.4c0,0,0.1,0,0.1,0
		c0.1,0,0.2,0,0.2-0.1l0.2-0.3c0.1-0.1,0-0.1,0-0.2c0-0.1-0.1-0.1-0.1-0.1c-0.2-0.1-0.7-0.5-1.5-0.5c-1.3,0-1.8,0.9-1.8,1.5
		c0,1,0.7,1.4,1.5,1.7c0.8,0.4,1.2,0.7,1.2,1.1c0,0.4-0.4,0.7-0.9,0.7c-0.6,0-1.2-0.5-1.2-0.5c0,0-0.1,0-0.1,0c-0.1,0-0.2,0-0.2,0.1
		c0,0.1-0.1,0.1-0.1,0.2c0,0.1-0.1,0.1-0.1,0.2c-0.1,0.2,0,0.3,0.1,0.3c0.1,0.1,0.7,0.6,1.8,0.6C68.2,26.1,69,25.4,69,24.5z"/>
	<path fill="#ffffff" d="M65.9,27c-0.3,0-0.5,0.2-0.5,0.5c0,0.3,0.2,0.5,0.5,0.5c0.3,0,0.5-0.2,0.5-0.5C66.4,27.2,66.2,27,65.9,27z"/>
	<path fill="#ffffff" d="M67.2,27c-0.3,0-0.5,0.2-0.5,0.5c0,0.3,0.2,0.5,0.5,0.5c0.3,0,0.5-0.2,0.5-0.5C67.7,27.2,67.5,27,67.2,27z"/>
	<path fill="#ffffff" d="M64.1,20.3h-0.5c-0.1,0-0.2,0.1-0.2,0.1l-2,2.8l-2-2.8c0-0.1-0.1-0.1-0.2-0.1h-0.5c-0.1,0-0.2,0.1-0.3,0.1
		c-0.1,0.1,0,0.2,0,0.3l2.5,3.4v3.3c0,0.2,0.1,0.3,0.3,0.3h0.4c0.2,0,0.3-0.1,0.3-0.3l0-3.3l2.6-3.5c0.1-0.1,0.1-0.2,0-0.3
		C64.3,20.4,64.2,20.3,64.1,20.3z"/>
	<path fill="#ffffff" d="M68.6,27c-0.3,0-0.5,0.2-0.5,0.5c0,0.3,0.2,0.5,0.5,0.5c0.3,0,0.5-0.2,0.5-0.5C69,27.2,68.8,27,68.6,27z"/>
	<path fill="#ffffff" d="M57.6,13c0-1.3-1.1-2.3-2.4-2.3h-2.7c-0.2,0-0.3,0.1-0.3,0.3v6.9c0,0.2,0.1,0.3,0.3,0.3H53c0.2,0,0.3-0.1,0.3-0.3v-2.6h1.8
		l1.4,2.7c0,0,0.1,0.1,0.3,0.1h0.5c0.1,0,0.2-0.1,0.3-0.1c0.1-0.1,0.1-0.2,0-0.3l-1.4-2.6C57,14.7,57.6,13.9,57.6,13z M55.2,14.4
		h-1.9v-2.8h1.9c0.7,0,1.4,0.6,1.4,1.4C56.6,13.8,56,14.4,55.2,14.4z"/>
	<path fill="#ffffff" d="M50.6,10.7h-4.1c-0.2,0-0.3,0.1-0.3,0.3v6.9c0,0.2,0.1,0.3,0.3,0.3h4.1c0.2,0,0.3-0.1,0.3-0.3v-0.3c0-0.2-0.1-0.3-0.3-0.3
		h-3.4v-2.5h2.9c0.2,0,0.3-0.1,0.3-0.3v-0.3c0-0.2-0.1-0.3-0.3-0.3h-2.9v-2.4h3.4c0.2,0,0.3-0.1,0.3-0.3V11
		C50.9,10.8,50.7,10.7,50.6,10.7z"/>
	<path fill="#ffffff" d="M57.1,20.3H53c-0.2,0-0.3,0.1-0.3,0.3v6.9c0,0.2,0.1,0.3,0.3,0.3h4.1c0.2,0,0.3-0.1,0.3-0.3v-0.3c0-0.2-0.1-0.3-0.3-0.3
		h-3.4v-2.5h2.9c0.2,0,0.3-0.1,0.3-0.3v-0.3c0-0.2-0.1-0.3-0.3-0.3h-2.9v-2.4h3.4c0.2,0,0.3-0.1,0.3-0.3v-0.3
		C57.4,20.4,57.3,20.3,57.1,20.3z"/>
	<path fill="#ffffff" d="M3.4,33.8c0.2-0.2,0.6-0.3,0.9-0.6c0.7-0.5,0.9-1.4,0.8-2.1c0.1,0.7-0.3,1.2-0.6,1.4c-0.4,0.2-0.9,0.2-1-0.2
		c0-0.1,0.1-0.3,0.2-0.3C3.4,31.9,3,32.2,3,32.5c0,0.4,0.5,0.6,0.8,0.5c-0.2,0.4-0.9-0.1-1.2,0.5c-0.2,0.4,0.2,0.9,0,1.4
		C3.2,34.5,3,34.2,3.4,33.8z"/>
	<path fill="#ffffff" d="M6.7,30.9c-0.2-0.2-0.5-0.1-0.6,0c-0.1-0.5-0.7-0.4-0.8,0.2c0,0.5-0.1,1.1-0.6,1.7c0.6-0.5,1.2-0.5,1.7-0.6
		c0.5,0,0.7-0.7,0.2-0.8C6.8,31.3,6.9,31.1,6.7,30.9z"/>
	<path fill="#ffffff" d="M6.5,5.4C6,5.3,5.4,5.3,4.8,4.8C5.3,5.4,5.4,6,5.4,6.5c0,0.5,0.7,0.7,0.8,0.2c0.1,0.1,0.4,0.2,0.6,0c0.2-0.2,0.1-0.5,0-0.6
		C7.2,6,7.1,5.4,6.5,5.4z"/>
	<path fill="#ffffff" d="M4.9,6C5,7.4,3.7,7.8,3.2,7.3c-0.4-0.4,0-0.5,0.3-0.7c0.2-0.1,0.3-0.4,0.2-0.5C3,5.6,2.3,6.4,2.7,7.2
		C2.8,7.4,3,7.6,3.2,7.7C3.1,7.7,3.1,7.8,3,7.9C2.7,8.4,3.2,9,3.1,9.3c0,0.2-0.2,0.2-0.3,0.2c0,0.2,0.4,0.3,0.5-0.1
		C3.5,9,3.2,8.7,3.5,8.2C3.7,7.8,4,7.8,4.2,7.6C4.8,7.3,5.1,6.7,4.9,6z"/>
	<path fill="#ffffff" d="M4.9,31.6c0.1-0.7-0.2-1.3-0.7-1.6c-0.3-0.2-0.6-0.2-0.8-0.6c-0.3-0.5,0-0.8-0.1-1.2c-0.1-0.3-0.5-0.2-0.5-0.1
		c0.1-0.1,0.3,0,0.3,0.2c0,0.3-0.5,0.9-0.1,1.4c0.1,0.1,0.1,0.1,0.2,0.2C3,30,2.8,30.2,2.7,30.4C2.3,31.2,3,32,3.6,31.5
		c0.1-0.1,0.1-0.4-0.2-0.5c-0.3-0.2-0.7-0.3-0.3-0.7C3.7,29.8,5,30.2,4.9,31.6z"/>
	<path fill="#ffffff" d="M2.6,4.1c0.3,0.6,1,0.2,1.2,0.5C3.5,4.5,3,4.7,3,5.1c0,0.4,0.4,0.6,0.6,0.5c-0.1,0-0.2-0.2-0.2-0.3C3.5,4.9,4,4.8,4.4,5
		c0.4,0.2,0.7,0.6,0.6,1.4C5.2,5.8,5,4.9,4.3,4.4C4,4.1,3.6,4,3.4,3.8C3,3.4,3.2,3.1,2.6,2.7C2.9,3.2,2.4,3.6,2.6,4.1z"/>
	<path fill="#ffffff" d="M3.8,3.3c0.2,0.2,0.3,0.6,0.6,0.9C4.9,5,5.8,5.2,6.4,5C5.7,5.1,5.2,4.8,5.1,4.4C4.9,4,4.9,3.5,5.3,3.5
		c0.1,0,0.3,0.1,0.3,0.2C5.7,3.4,5.5,3,5.1,3C4.7,3,4.5,3.5,4.6,3.8C4.3,3.6,4.7,2.9,4.1,2.6c-0.4-0.2-0.9,0.2-1.4,0
		C3.1,3.2,3.4,2.9,3.8,3.3z"/>
	<path fill="#ffffff" d="M80.2,3.5c0.4,0.1,0.4,0.5,0.2,1C80.2,4.8,79.7,5.1,79,5C79.6,5.2,80.5,5,81,4.3c0.2-0.3,0.3-0.7,0.6-0.9
		c0.4-0.4,0.8-0.1,1.1-0.8c-0.4,0.3-0.9-0.2-1.4,0c-0.6,0.3-0.2,1-0.5,1.2C80.9,3.5,80.7,3,80.3,3c-0.4,0-0.6,0.4-0.5,0.6
		C79.9,3.5,80.1,3.4,80.2,3.5z"/>
	<path fill="#ffffff" d="M78.9,32.2c0.5,0,1.1,0.1,1.7,0.6c-0.5-0.6-0.5-1.2-0.6-1.7c0-0.5-0.7-0.7-0.8-0.2c-0.1-0.1-0.4-0.2-0.6,0
		c-0.2,0.2-0.1,0.5,0,0.6C78.2,31.6,78.4,32.2,78.9,32.2z"/>
	<path fill="#ffffff" d="M76,3.3c0.4,0.1,0.7-0.1,1.2,0.1c0.3,0.2,0.4,0.5,0.6,0.8c0.3,0.6,0.9,0.8,1.6,0.7C78,5,77.6,3.7,78.1,3.1
		c0.3-0.4,0.5,0,0.7,0.3c0.1,0.2,0.4,0.3,0.5,0.2C79.8,3,79,2.3,78.2,2.7C78,2.8,77.8,3,77.7,3.2c0-0.1-0.1-0.2-0.2-0.2
		c-0.5-0.3-1.1,0.2-1.4,0.1c-0.2,0-0.2-0.2-0.2-0.3C75.8,2.8,75.7,3.2,76,3.3z"/>
	<path fill="#ffffff" d="M78.9,5.4c-0.5,0-0.7,0.7-0.2,0.8c-0.1,0.1-0.2,0.4,0,0.6c0.2,0.2,0.5,0.1,0.6,0C79.4,7.2,80,7,80,6.5
		c0-0.5,0.1-1.1,0.6-1.7C80,5.3,79.4,5.3,78.9,5.4z"/>
	<path fill="#ffffff" d="M5.3,34.1c-0.4-0.1-0.4-0.5-0.2-1c0.2-0.4,0.6-0.7,1.4-0.6c-0.7-0.1-1.5,0.1-2.1,0.8c-0.2,0.3-0.3,0.7-0.6,0.9
		c-0.4,0.4-0.8,0.1-1.1,0.8c0.4-0.3,0.9,0.2,1.4,0c0.6-0.3,0.2-1,0.5-1.2c-0.1,0.3,0.1,0.8,0.5,0.8c0.4,0,0.6-0.4,0.5-0.6
		C5.5,34.1,5.4,34.2,5.3,34.1z"/>
	<path fill="#ffffff" d="M82.8,33.5c-0.3-0.6-1-0.2-1.2-0.5c0.3,0.1,0.8-0.1,0.8-0.5c0-0.4-0.4-0.6-0.6-0.5c0.1,0,0.2,0.2,0.2,0.3
		c-0.1,0.4-0.5,0.4-1,0.2c-0.4-0.2-0.7-0.6-0.6-1.4c-0.1,0.7,0.1,1.5,0.8,2.1c0.3,0.2,0.7,0.3,0.9,0.6c0.4,0.4,0.1,0.8,0.8,1.1
		C82.6,34.4,83,34,82.8,33.5z"/>
	<path fill="#ffffff" d="M80.5,31.6c-0.1-1.4,1.2-1.8,1.8-1.3c0.4,0.4,0,0.5-0.3,0.7c-0.2,0.1-0.3,0.4-0.2,0.5c0.7,0.5,1.3-0.3,0.9-1.1
		c-0.1-0.2-0.3-0.4-0.5-0.5c0.1,0,0.2-0.1,0.2-0.2c0.3-0.5-0.2-1.1-0.1-1.4c0-0.2,0.2-0.2,0.3-0.2c0-0.2-0.4-0.3-0.5,0.1
		c-0.1,0.4,0.1,0.7-0.1,1.2c-0.2,0.3-0.5,0.4-0.8,0.6C80.6,30.3,80.4,30.9,80.5,31.6z"/>
	<path fill="#ffffff" d="M82.9,2.7c-0.6,0.3-0.4,0.7-0.8,1.1c-0.2,0.2-0.6,0.3-0.9,0.6c-0.7,0.5-0.9,1.4-0.8,2.1C80.3,5.7,80.6,5.2,81,5
		c0.4-0.2,0.9-0.2,1,0.2c0,0.1-0.1,0.3-0.2,0.3c0.3,0.1,0.6-0.1,0.6-0.5c0-0.4-0.5-0.6-0.8-0.5c0.2-0.4,0.9,0.1,1.2-0.5
		C83,3.6,82.6,3.2,82.9,2.7z"/>
	<path fill="#ffffff" d="M83.1,0.5H2.2c-1,0-1.7,0.8-1.7,1.7v33.3c0,1,0.8,1.7,1.7,1.7h80.9c1,0,1.7-0.8,1.7-1.7V2.2C84.8,1.3,84.1,0.5,83.1,0.5z
		 M83.8,35.6c0,0.4-0.3,0.7-0.7,0.7H2.2c-0.4,0-0.7-0.3-0.7-0.7V2.2c0-0.4,0.3-0.7,0.7-0.7h80.9c0.4,0,0.7,0.3,0.7,0.7V35.6z"/>
	<path fill="#ffffff" d="M80.5,6c-0.1,0.7,0.2,1.3,0.7,1.6c0.3,0.2,0.6,0.2,0.8,0.6c0.3,0.5,0,0.8,0.1,1.2c0.1,0.3,0.5,0.2,0.5,0.1
		c-0.1,0.1-0.3,0-0.3-0.2c0-0.3,0.5-0.9,0.1-1.4c-0.1-0.1-0.1-0.1-0.2-0.2c0.2-0.1,0.4-0.2,0.5-0.5c0.4-0.8-0.3-1.6-0.9-1.1
		c-0.1,0.1-0.1,0.4,0.2,0.5c0.3,0.2,0.7,0.3,0.3,0.7C81.7,7.8,80.4,7.4,80.5,6z"/>
	<path fill="#ffffff" d="M81.6,34.3c-0.2-0.2-0.3-0.6-0.6-0.9c-0.5-0.7-1.4-0.9-2.1-0.8c0.7-0.1,1.2,0.3,1.4,0.6c0.2,0.4,0.2,0.9-0.2,1
		c-0.1,0-0.3-0.1-0.3-0.2c-0.1,0.3,0.1,0.6,0.5,0.6c0.4,0,0.6-0.5,0.5-0.8c0.4,0.2-0.1,0.9,0.5,1.2c0.4,0.2,0.9-0.2,1.4,0
		C82.3,34.4,82,34.7,81.6,34.3z"/>
	<path fill="#ffffff" d="M9.4,34.3c-0.4-0.1-0.7,0.1-1.2-0.1c-0.3-0.2-0.4-0.5-0.6-0.8c-0.3-0.6-0.9-0.8-1.6-0.7c1.4-0.1,1.8,1.2,1.3,1.8
		c-0.3,0.4-0.5,0-0.7-0.3c-0.1-0.2-0.4-0.3-0.5-0.2c-0.5,0.7,0.3,1.3,1.1,0.9c0.2-0.1,0.4-0.3,0.5-0.5c0,0.1,0.1,0.2,0.2,0.2
		c0.5,0.3,1.1-0.2,1.4-0.1c0.2,0,0.2,0.2,0.2,0.3C9.6,34.8,9.7,34.4,9.4,34.3z"/>
	<path fill="#ffffff" d="M9.5,2.8c0.1,0.1,0,0.3-0.2,0.3C9,3.2,8.4,2.7,7.9,3C7.8,3,7.7,3.1,7.7,3.2C7.6,3,7.5,2.8,7.2,2.7C6.4,2.3,5.6,3,6.1,3.6
		c0.1,0.1,0.4,0.1,0.5-0.2C6.8,3.1,7,2.8,7.3,3.1C7.8,3.7,7.4,5,6,4.9C6.7,5,7.3,4.8,7.7,4.2c0.2-0.3,0.2-0.6,0.6-0.8
		c0.5-0.3,0.8,0,1.2-0.1C9.7,3.2,9.6,2.8,9.5,2.8z"/>
	<path fill="#ffffff" d="M78.8,34.2c-0.2,0.3-0.3,0.7-0.7,0.3c-0.5-0.5-0.1-1.8,1.3-1.8c-0.7-0.1-1.3,0.2-1.6,0.7c-0.2,0.3-0.2,0.6-0.6,0.8
		c-0.5,0.3-0.8,0-1.2,0.1c-0.3,0.1-0.2,0.5-0.1,0.5c-0.1-0.1,0-0.3,0.2-0.3c0.3,0,0.9,0.5,1.4,0.1c0.1-0.1,0.1-0.1,0.2-0.2
		c0.1,0.2,0.2,0.4,0.5,0.5c0.8,0.4,1.6-0.3,1.1-0.9C79.2,33.9,78.9,33.9,78.8,34.2z"/>
</g>
</svg>
