<?xml version="1.0" encoding="utf-8"?>
<!-- Generator: Adobe Illustrator 23.1.1, SVG Export Plug-In . SVG Version: 6.00 Build 0)  -->
<svg version="1.1" id="Layer_1" xmlns="http://www.w3.org/2000/svg" xmlns:xlink="http://www.w3.org/1999/xlink" x="0px" y="0px"
	 viewBox="0 0 75 75" style="enable-background:new 0 0 75 75;" xml:space="preserve">
<style type="text/css">
	.st0{fill:#0D2036;}
	.st1{fill:#FFFFFF;}
	.st2{fill:none;stroke:#FFFFFF;stroke-width:2;stroke-miterlimit:10;}
</style>
<circle class="st0" cx="37.4" cy="37.5" r="35.1"/>
<g id="Back_to_top">
</g>
<g id="close">
</g>
<g id="phone">
</g>
<g id="email">
</g>
<g id="opening">
</g>
<g id="Brochure">
</g>
<g id="Twitter">
	<g id="XMLID_51_">
		<path id="XMLID_54_" class="st1" d="M54.4,25.6c1.9-1,3.4-2.8,4-4.8c-1.8,1-3.8,1.8-5.8,2.1c-1.6-1.8-4-2.8-6.6-2.8
			c-5,0-9,4-9,8.8c0,0.8,0.1,1.4,0.3,2c-7.5-0.4-14.2-3.9-18.7-9.2c-0.8,1.3-1.4,2.8-1.4,4.4c0,3,1.4,5.8,3.8,7.3
			c-1.5-0.1-3.4-0.5-4.6-1.1v0.1c0,4.3,3.6,7.8,7.9,8.7c-0.8,0.1-1,0.3-1.9,0.3c-0.6,0-1.3,0-1.8-0.1c1.1,3.4,4.4,5.9,8.4,6
			c-3.1,2.4-7,3.8-11.3,3.8c-0.8,0-1.4,0-2.1-0.1c4,2.5,8.8,3.9,13.9,3.9C46,54.8,55.1,41.5,55.1,30v-1.1c1.8-1.3,3.3-2.8,4.4-4.6
			C58,25,56.3,25.3,54.4,25.6z"/>
	</g>
	<circle class="st2" cx="37.5" cy="37.5" r="35"/>
</g>
<g id="facebook">
</g>
<g id="Instagram.svg">
</g>
<g id="Google.svg">
</g>
</svg>
