<?xml version="1.0" encoding="utf-8"?>
<!-- Generator: Adobe Illustrator 23.1.1, SVG Export Plug-In . SVG Version: 6.00 Build 0)  -->
<svg version="1.1" id="Layer_1" xmlns="http://www.w3.org/2000/svg" xmlns:xlink="http://www.w3.org/1999/xlink" x="0px" y="0px"
	 viewBox="0 0 75 75" style="enable-background:new 0 0 75 75;" xml:space="preserve">
<style type="text/css">
	.st0{fill:#0D2036;}
	.st1{fill:#FFFFFF;}
	.st2{fill:none;stroke:#FFFFFF;stroke-width:2;stroke-miterlimit:10;}
</style>
<circle class="st0" cx="37.4" cy="37.5" r="35.1"/>
<g id="Back_to_top">
</g>
<g id="close">
</g>
<g id="phone">
</g>
<g id="email">
</g>
<g id="opening">
</g>
<g id="Brochure">
</g>
<g id="Twitter">
</g>
<g id="facebook">
</g>
<g id="Instagram.svg">
	<g id="XMLID_76_">
		<path id="XMLID_77_" class="st1" d="M15.9,54.7c0-11.5,0-22.9,0-34.4c0-0.1,0.1-0.2,0.1-0.3c0.4-2.1,1.7-3.4,3.8-4
			c0.2,0,0.3-0.1,0.5-0.1c11.5,0,22.9,0,34.4,0c0.1,0,0.2,0.1,0.2,0.1c2.1,0.4,3.4,1.7,4,3.8c0,0.2,0.1,0.4,0.1,0.5
			c0,11.5,0,22.9,0,34.4c0,0.1-0.1,0.2-0.1,0.3c-0.4,2-1.9,3.6-3.9,4c-0.1,0-0.3,0.1-0.4,0.1c-11.5,0-22.9,0-34.4,0
			C20.1,59.1,20,59,20,59c-2-0.4-3.6-1.8-4-3.8C16,55,16,54.9,15.9,54.7z M20.9,34.2c0,0.1,0,0.3,0,0.4c0,5.9,0,11.9,0,17.8
			c0,1.1,0.7,1.8,1.8,1.8c9.8,0,19.7,0,29.5,0c1.2,0,1.8-0.7,1.8-1.9c0-5.9,0-11.7,0-17.6c0-0.1,0-0.3,0-0.5c-1.3,0-2.5,0-3.7,0
			c0.9,4.1,0.3,7.9-2.3,11.2c-2.5,3.4-6,5.1-10.2,5.3c-3.5,0.1-6.7-1-9.3-3.3c-3.9-3.6-5.2-8-4.1-13.2
			C23.4,34.2,22.2,34.2,20.9,34.2z M45.8,37.5c0-4.6-3.7-8.3-8.3-8.3s-8.3,3.7-8.3,8.3s3.7,8.3,8.3,8.3S45.8,42.1,45.8,37.5z
			 M50,20.9c-0.8,0-1.6,0-2.4,0c-1.1,0-1.8,0.7-1.8,1.7c0,1.6,0,3.3,0,4.9c0,1,0.7,1.7,1.7,1.7c1.6,0,3.3,0,4.9,0
			c1.1,0,1.7-0.7,1.7-1.8c0-1.6,0-3.2,0-4.8c0-1.1-0.7-1.8-1.8-1.8C51.6,20.9,50.8,20.9,50,20.9z"/>
	</g>
	<circle class="st2" cx="37.5" cy="37.5" r="35"/>
</g>
<g id="Google.svg">
</g>
</svg>
