<?xml version="1.0" encoding="utf-8"?>
<!-- Generator: Adobe Illustrator 19.0.1, SVG Export Plug-In . SVG Version: 6.00 Build 0)  -->
<svg version="1.1" xmlns="http://www.w3.org/2000/svg" xmlns:xlink="http://www.w3.org/1999/xlink" x="0px" y="0px"
	 viewBox="0 0 75 75" enable-background="new 0 0 75 75" xml:space="preserve">
<g id="Back_to_top">
</g>
<g id="close">
</g>
<g id="phone">
	<g id="e1Zmyn_2_">
		<g id="XMLID_33_">
			<path id="XMLID_34_" d="M21.8,24.4C21.9,24.4,21.9,24.4,21.8,24.4c0-0.4,0.1-0.6,0.1-0.9c0-0.4,0.1-0.9,0.3-1.3
				c0.4-1.4,1.2-2.6,2.4-3.6c0.8-0.6,1.6-1.1,2.5-1.4c0.8-0.3,1.6-0.5,2.4-0.6c0.5-0.1,0.9-0.1,1.4-0.2c0,0,0,0,0.1,0
				c0,0,0,0.1,0,0.1c0,0.2,0,0.5,0,0.7c0,0.8,0,1.5,0.1,2.3c0,1.1,0.1,2.3,0.1,3.4c0,0.5,0,1,0,1.5c0,1,0.1,2,0.1,3
				c0,0.4,0,0.8,0,1.2c0,0.1,0,0.1-0.1,0.1c-0.3,0.2-0.7,0.4-1,0.6c-0.6,0.5-1,1.2-1.2,2c-0.1,0.6-0.1,1.2,0.1,1.8
				c0.1,0.3,0.2,0.6,0.3,0.9c1.4,2.7,2.8,5.4,4.2,8.1c0.6,1.2,1.3,2.4,2,3.6c0.3,0.6,0.7,1.2,1.1,1.7c0.3,0.4,0.6,0.7,1.1,1
				c0.3,0.2,0.6,0.2,0.9,0.3c0.6,0.1,1.2,0,1.7-0.2c0.3-0.1,0.6-0.2,0.9-0.4c0,0,0,0,0,0c3.2,2.5,6.5,5.1,9.7,7.6c0,0-0.1,0-0.1,0.1
				c-0.8,0.5-1.6,0.9-2.5,1.3c-1.4,0.6-2.8,1-4.2,1.4c0,0,0,0-0.1,0c-0.8,0-1.6,0-2.4,0c0,0,0,0-0.1,0c-0.6-0.1-1.1-0.2-1.6-0.4
				c-1-0.3-1.9-0.8-2.8-1.3c-1-0.6-2-1.4-2.9-2.1c-1-0.9-2-1.9-2.9-2.9c-1-1.2-2-2.4-2.9-3.6c-0.8-1.1-1.6-2.3-2.4-3.4
				c-0.5-0.7-0.9-1.5-1.3-2.3c-0.4-0.8-0.7-1.6-1-2.4c-0.6-1.6-1-3.2-1.3-4.9c-0.1-0.6-0.2-1.2-0.3-1.8c-0.1-0.4-0.1-0.9-0.2-1.3
				c-0.1-0.4-0.1-0.9-0.2-1.3c0-0.4-0.1-0.8-0.1-1.2c0-0.5-0.1-0.9-0.1-1.4c0-0.6-0.1-1.2-0.1-1.8c0-0.4,0-0.7,0-1.1
				c0,0,0-0.1,0-0.1C21.8,25,21.8,24.7,21.8,24.4z" fill="#ffffff"/>
            <path id="XMLID_35_" d="M53.2,52.3c0,0.2-0.1,0.4-0.1,0.6c-0.2,0.7-0.5,1.5-0.7,2.2c0,0,0,0,0,0.1c-3.3-2.6-6.6-5.3-10-7.9
				c0,0,0,0,0.1,0c0.8-0.4,1.7-0.9,2.5-1.3c0,0,0.1,0,0.1,0c0.4,0,0.7,0.1,1,0.2c0.3,0.1,0.5,0.3,0.7,0.4c0.8,0.6,1.6,1.2,2.4,1.8
				c1.1,0.8,2.2,1.7,3.2,2.5c0.3,0.3,0.5,0.6,0.7,1c0,0.1,0,0.1,0,0.2C53.2,52.2,53.2,52.3,53.2,52.3z" fill="#ffffff" />
            <path id="XMLID_36_" d="M32.5,16.4c0.1,0,0.2,0,0.3,0c0.3,0.1,0.7,0.2,1,0.3c0.4,0.2,0.7,0.4,1,0.6c0.2,0.1,0.3,0.3,0.5,0.5
				c0.1,0.1,0.1,0.3,0.1,0.4c0,1.2,0,2.5,0.1,3.7c0,1.5,0,3,0.1,4.4c0,0.1,0,0.2-0.1,0.2c-0.2,0.2-0.4,0.4-0.5,0.6
				c-0.2,0.3-0.5,0.5-0.9,0.7c-0.3,0.2-0.7,0.3-1.1,0.4c-0.1,0-0.2,0-0.3,0c-0.2,0-0.3-0.1-0.3-0.3c0-0.2,0-0.4-0.1-0.6
				c-0.1-1-0.1-2-0.1-3c0-1.4-0.1-2.9-0.1-4.3c0-1.2,0-2.5-0.1-3.7c0,0,0-0.1,0-0.1c0.1,0,0.1,0,0.2,0
				C32.3,16.4,32.4,16.4,32.5,16.4z" fill="#ffffff" />
		</g>
	</g>
	<circle fill="none" stroke="#ffffff" stroke-width="2.0588" stroke-miterlimit="10" cx="37.5" cy="37.5" r="35"/>
</g>
</svg>
