<?xml version="1.0" encoding="utf-8"?>
<!-- Generator: Adobe Illustrator 19.0.1, SVG Export Plug-In . SVG Version: 6.00 Build 0)  -->
<svg version="1.1" xmlns="http://www.w3.org/2000/svg" xmlns:xlink="http://www.w3.org/1999/xlink" x="0px" y="0px"
	 viewBox="0 0 75 75" enable-background="new 0 0 75 75" xml:space="preserve">
<g id="Back_to_top">
</g>
<g id="close">
</g>
<g id="phone">
</g>
<g id="email">
</g>
<g id="opening">
</g>
<g id="Brochure">
</g>
<g id="Twitter">
</g>
<g id="facebook">
</g>
<g id="Instagram.svg">
</g>
<g id="Google.svg">
	<g>
		<polygon points="59.1,35.1 53.4,35.1 53.4,29.4 50.5,29.4 50.5,35.1 44.8,35.1 44.8,37.9 50.5,37.9 50.5,43.6 53.4,43.6 
			53.4,37.9 59.1,37.9" fill="#ffffff"/>
		<path d="M38.7,40.5l-2.1-1.6c-0.6-0.5-1.5-1.2-1.5-2.5c0-1.3,0.9-2.1,1.6-2.8c2.4-1.9,4.9-3.9,4.9-8.1c0-4.3-2.6-6.4-4-7.5H41
			l3.7-2.3l-12.1,0c-3.1,0-7.3,0.3-10.6,3c-2.5,2.1-3.3,5.2-3.3,7.8c0,4.4,3.5,8.9,9.6,8.9c0.6,0,1.2-0.1,1.9-0.1
			c-0.3,0.7-0.6,1.3-0.6,2.2c0,1.8,0.9,2.8,1.7,3.9c-2.6,0.2-7.5,0.5-11.1,2.6c-3.4,2-4.5,4.9-4.5,7c0,4.2,3.9,8.2,12.3,8.2
			c10,0,15.4-5.5,15.4-10.8C43.5,44.5,41.2,42.6,38.7,40.5z M31.1,34.1c-5,0-7.2-6.3-7.2-10.1c0-1.5,0.3-3.2,1.3-4.4
			c0.9-1.1,2.5-1.7,4.1-1.7c4.8,0,7.3,6.4,7.3,10.5c0,1-0.1,2.7-1.4,4C34.1,33.2,32.5,34.1,31.1,34.1z M31.1,56.8
			c-6.2,0-10.2-2.9-10.2-7c0-4,3.7-5.4,5-5.9c2.4-0.8,5.6-0.9,6.1-0.9c0.6,0,0.9,0,1.3,0.1c4.4,3.1,6.3,4.6,6.3,7.5
			C39.6,54.2,36.7,56.8,31.1,56.8z" fill="#ffffff"/>
	</g>
	<circle fill="none" stroke="#ffffff" stroke-width="2" stroke-miterlimit="10" cx="37.5" cy="37.5" r="35"/>
</g>
</svg>
