<?xml version="1.0" encoding="utf-8"?>
<!-- Generator: Adobe Illustrator 23.1.1, SVG Export Plug-In . SVG Version: 6.00 Build 0)  -->
<svg version="1.1" id="Layer_1" xmlns="http://www.w3.org/2000/svg" xmlns:xlink="http://www.w3.org/1999/xlink" x="0px" y="0px"
	 viewBox="0 0 75 75" style="enable-background:new 0 0 75 75;" xml:space="preserve">
<style type="text/css">
	.st0{fill:#FFFFFF;}
</style>
<g id="Back_to_top">
</g>
<g id="close">
</g>
<g id="phone">
</g>
<g id="email">
</g>
<g id="opening">
</g>
<g id="Brochure">
</g>
<path class="st0" d="M37.5,1.5c-19.9,0-36,16.1-36,36s16.1,36,36,36s36-16.1,36-36S57.4,1.5,37.5,1.5z M55.1,28.9V30
	c0,11.5-9.1,24.8-25.6,24.9c-5.1,0-9.9-1.4-13.9-3.9c0.7,0.1,1.3,0.1,2.1,0.1c4.3,0,8.2-1.4,11.3-3.8c-4-0.1-7.3-2.6-8.4-6
	c0.5,0.1,1.2,0.1,1.8,0.1c0.9,0,1.1-0.2,1.9-0.3c-4.3-0.9-7.9-4.4-7.9-8.7v-0.1c1.2,0.6,3.1,1,4.6,1.1c-2.4-1.5-3.8-4.3-3.8-7.3
	c0-1.6,0.6-3.1,1.4-4.4c4.5,5.3,11.2,8.8,18.7,9.2c-0.2-0.6-0.3-1.2-0.3-2c0-4.8,4-8.8,9-8.8c2.6,0,5,1,6.6,2.8c2-0.3,4-1.1,5.8-2.1
	c-0.6,2-2.1,3.8-4,4.8c1.9-0.3,3.6-0.6,5.1-1.3C58.4,26.1,56.9,27.6,55.1,28.9z"/>
<g id="facebook">
</g>
<g id="Instagram.svg">
</g>
<g id="Google.svg">
</g>
</svg>
